PathFileType	4	(X/Y/Z)	RBDS017static.trc
DataRate	CameraRate	NumFrames	NumMarkers	Units	OrigDataRate	OrigDataStartFrame	OrigNumFrames
150.000000	150.000000	4	48	mm	150.000000	131	150
Frame#	Time	L.Ankle			L.Ankle.Medial			L.ASIS			L.GTR			L.Heel.Bottom			L.Heel.Lateral			L.Heel.Top			L.HF			L.Iliac.Crest			L.Knee			L.Knee.Medial			L.MT1			L.MT2			L.MT5			L.PSIS			L.Shank.Bottom.Lateral			L.Shank.Bottom.Medial			L.Shank.Top.Lateral			L.Shank.Top.Medial			L.Thigh.Bottom.Lateral			L.Thigh.Bottom.Medial			L.Thigh.Top.Lateral			L.Thigh.Top.Medial			L.TT			R.Ankle			R.Ankle.Medial			R.ASIS			R.GTR			R.Heel.Bottom			R.Heel.Lateral			R.Heel.Top			R.HF			R.Iliac.Crest			R.Knee			R.Knee.Medial			R.MT1			R.MT2			R.MT5			R.PSIS			R.Shank.Bottom.Lateral			R.Shank.Bottom.Medial			R.Shank.Top.Lateral			R.Shank.Top.Medial			R.Thigh.Bottom.Lateral			R.Thigh.Bottom.Medial			R.Thigh.Top.Lateral			R.Thigh.Top.Medial			R.TT			
		X1	Y1	Z1	X2	Y2	Z2	X3	Y3	Z3	X4	Y4	Z4	X5	Y5	Z5	X6	Y6	Z6	X7	Y7	Z7	X8	Y8	Z8	X9	Y9	Z9	X10	Y10	Z10	X11	Y11	Z11	X12	Y12	Z12	X13	Y13	Z13	X14	Y14	Z14	X15	Y15	Z15	X16	Y16	Z16	X17	Y17	Z17	X18	Y18	Z18	X19	Y19	Z19	X20	Y20	Z20	X21	Y21	Z21	X22	Y22	Z22	X23	Y23	Z23	X24	Y24	Z24	X25	Y25	Z25	X26	Y26	Z26	X27	Y27	Z27	X28	Y28	Z28	X29	Y29	Z29	X30	Y30	Z30	X31	Y31	Z31	X32	Y32	Z32	X33	Y33	Z33	X34	Y34	Z34	X35	Y35	Z35	X36	Y36	Z36	X37	Y37	Z37	X38	Y38	Z38	X39	Y39	Z39	X40	Y40	Z40	X41	Y41	Z41	X42	Y42	Z42	X43	Y43	Z43	X44	Y44	Z44	X45	Y45	Z45	X46	Y46	Z46	X47	Y47	Z47	X48	Y48	Z48	

132	0.8733333333333334	707.1035766601563	113.8923187255859	1037.71728515625	734.4097900390625	124.9199447631836	1120.534912109375	859.2821655273438	1078.588256835938	1088.487182617188	781.352783203125	992.1776733398438	1038.215698242188	643.1145629882813	41.04404067993164	1078.213745117188	664.8038940429688	60.98188781738281	1042.383178710938	649.9277954101563	87.24746704101563	1080.262817382813	772.42333984375	511.3174133300781	1047.761474609375	785.3906860351563	1170.128051757813	1050.872680664063	775.3560791015625	565.958251953125	1054.941040039063	768.0111083984375	551.7235107421875	1174.938110351563	864.8826293945313	63.7993278503418	1123.920532226563	869.1669311523438	68.33634185791016	1074.835205078125	834.907958984375	50.36560821533203	1013.886535644531	679.7385864257813	1137.375244140625	1174.585693359375	718.1195678710938	209.0818023681641	1036.018432617188	675.7774047851563	210.4497375488281	1071.335571289063	715.936767578125	289.4771728515625	1030.764892578125	674.5567016601563	291.2850036621094	1065.26123046875	786.405517578125	694.7799682617188	1035.026123046875	720.7935180664063	686.1732177734375	1064.874755859375	765.7467041015625	803.6161499023438	1031.487182617188	707.3472290039063	795.7601928710938	1065.489868164063	826.181640625	482.1708679199219	1089.764770507813	710.5595092773438	109.8038330078125	1413.723999023438	732.2830200195313	122.5678863525391	1330.067260742188	848.7261962890625	1074.446411132813	1373.090942382813	773.4798583984375	986.7525024414063	1417.0498046875	641.3505249023438	43.53243255615234	1370.169921875	666.8626708984375	65.19947814941406	1409.645385742188	651.6004028320313	90.29135131835938	1370.474731445313	766.671875	507.6007080078125	1399.477294921875	786.5892944335938	1160.4208984375	1409.573364257813	772.0177001953125	563.7977294921875	1392.133056640625	777.1705932617188	548.2872924804688	1271.790405273438	862.984619140625	65.45160675048828	1329.093994140625	872.55810546875	70.066162109375	1371.6435546875	830.8955078125	51.44165420532227	1442.256225585938	678.1317138671875	1135.031982421875	1276.540649414063	712.4653930664063	208.4862976074219	1414.0302734375	675.1895141601563	212.7070007324219	1379.002075195313	714.593017578125	293.3008422851563	1420.166625976563	673.8306274414063	293.3993225097656	1385.35009765625	768.5656127929688	689.510498046875	1408.52490234375	706.7741088867188	682.5078125	1368.411254882813	748.7861328125	797.855224609375	1412.525268554688	693.8214721679688	791.4487915039063	1370.475463867188	824.8759765625	479.8118591308594	1357.776000976563	
133	0.88	707.1092529296875	113.8906402587891	1037.715942382813	734.4107055664063	124.9191665649414	1120.538818359375	859.275390625	1078.57861328125	1088.4638671875	781.3510131835938	992.167236328125	1038.208618164063	643.1217041015625	41.04254150390625	1078.222534179688	664.8060913085938	60.98622131347656	1042.3837890625	649.9293823242188	87.25206756591797	1080.269897460938	772.4166259765625	511.3100891113281	1047.758911132813	785.3880615234375	1170.115112304688	1050.870727539063	775.3605346679688	565.9513549804688	1054.94189453125	768.0021362304688	551.7296142578125	1174.9306640625	864.8905029296875	63.78945541381836	1123.912353515625	869.1742553710938	68.33152008056641	1074.825805664063	834.9078369140625	50.36933135986328	1013.888427734375	679.7401733398438	1137.378173828125	1174.576904296875	718.1148681640625	209.0717163085938	1036.0126953125	675.7803344726563	210.445556640625	1071.338500976563	715.9317626953125	289.4756469726563	1030.763305664063	674.5519409179688	291.2841491699219	1065.258911132813	786.4030151367188	694.7819213867188	1035.019775390625	720.7881469726563	686.1729125976563	1064.865478515625	765.7426147460938	803.611572265625	1031.488037109375	707.3519897460938	795.7538452148438	1065.475463867188	826.1834106445313	482.1675720214844	1089.76416015625	710.5514526367188	109.8038711547852	1413.717895507813	732.2904663085938	122.5553131103516	1330.068115234375	848.7325439453125	1074.448364257813	1373.073608398438	773.487548828125	986.7611083984375	1417.0341796875	641.3489379882813	43.52722930908203	1370.160278320313	666.8717651367188	65.19319915771484	1409.647583007813	651.5972900390625	90.28986358642578	1370.475830078125	766.6622924804688	507.6091003417969	1399.468383789063	786.5914306640625	1160.421508789063	1409.569213867188	772.02587890625	563.8088989257813	1392.124389648438	777.167236328125	548.2916259765625	1271.776977539063	862.9878540039063	65.44844818115234	1329.09423828125	872.5589599609375	70.07020568847656	1371.63671875	830.9000854492188	51.44786834716797	1442.255737304688	678.1399536132813	1135.033325195313	1276.53759765625	712.4601440429688	208.4840698242188	1414.01904296875	675.1878051757813	212.7027130126953	1378.995239257813	714.5834350585938	293.2958984375	1420.1708984375	673.82421875	293.3964233398438	1385.34130859375	768.5668334960938	689.5027465820313	1408.50732421875	706.7678833007813	682.5086669921875	1368.39111328125	748.7859497070313	797.8588256835938	1412.511962890625	693.8261108398438	791.4574584960938	1370.472900390625	824.8677368164063	479.8230285644531	1357.776489257813	
134	0.8866666666666667	707.1109008789063	113.8928909301758	1037.712646484375	734.405029296875	124.9152145385742	1120.544311523438	859.2760009765625	1078.589599609375	1088.4658203125	781.33642578125	992.1693115234375	1038.2001953125	643.1221313476563	41.03769302368164	1078.227783203125	664.7984619140625	60.97662353515625	1042.390625	649.9292602539063	87.24934387207031	1080.263427734375	772.4223022460938	511.3131103515625	1047.756469726563	785.382080078125	1170.113403320313	1050.86962890625	775.3539428710938	565.9537963867188	1054.931274414063	768.0029296875	551.7161254882813	1174.929077148438	864.8886108398438	63.79138946533203	1123.919921875	869.1725463867188	68.33015441894531	1074.828491210938	834.9069213867188	50.364990234375	1013.892272949219	679.7454833984375	1137.375732421875	1174.567504882813	718.125	209.0696105957031	1036.017944335938	675.7774658203125	210.4485778808594	1071.335083007813	715.9322509765625	289.4703063964844	1030.761108398438	674.5586547851563	291.2719116210938	1065.27099609375	786.3966674804688	694.7789916992188	1035.027587890625	720.7909545898438	686.1693725585938	1064.866333007813	765.7329711914063	803.6117553710938	1031.472778320313	707.3464965820313	795.7572021484375	1065.476928710938	826.1849365234375	482.1737670898438	1089.7578125	710.5493774414063	109.80517578125	1413.7158203125	732.286865234375	122.5518569946289	1330.07421875	848.7398071289063	1074.44677734375	1373.063110351563	773.5029296875	986.7568359375	1417.025512695313	641.3507690429688	43.51911544799805	1370.168579101563	666.8652954101563	65.18286895751953	1409.64697265625	651.5918579101563	90.28953552246094	1370.470825195313	766.6641845703125	507.6104736328125	1399.463500976563	786.5927734375	1160.415405273438	1409.576782226563	772.0196533203125	563.800537109375	1392.11083984375	777.1463012695313	548.2821655273438	1271.777587890625	862.9827270507813	65.44620513916016	1329.096435546875	872.5516357421875	70.06596374511719	1371.633911132813	830.8995361328125	51.44620895385742	1442.25	678.1551513671875	1135.021850585938	1276.540283203125	712.458251953125	208.4828796386719	1414.0224609375	675.180908203125	212.6974029541016	1378.989624023438	714.5753173828125	293.2847290039063	1420.167724609375	673.822021484375	293.3992919921875	1385.33935546875	768.5545654296875	689.5071411132813	1408.499755859375	706.7613525390625	682.5211791992188	1368.373901367188	748.7867431640625	797.8491821289063	1412.508666992188	693.8285522460938	791.4566650390625	1370.453125	824.8629760742188	479.8148803710938	1357.756713867188	
135	0.8933333333333334	707.1137084960938	113.8879318237305	1037.715576171875	734.408203125	124.9088363647461	1120.543701171875	859.277587890625	1078.585815429688	1088.451782226563	781.3471069335938	992.1505126953125	1038.185302734375	643.1250610351563	41.03186416625977	1078.219482421875	664.7932739257813	60.98169708251953	1042.386474609375	649.9296875	87.24497222900391	1080.2666015625	772.4144897460938	511.3074645996094	1047.74560546875	785.37939453125	1170.106811523438	1050.857421875	775.3589477539063	565.9404907226563	1054.924194335938	768.0216674804688	551.7261962890625	1174.912963867188	864.8932495117188	63.79329681396484	1123.910888671875	869.1798706054688	68.32708740234375	1074.830932617188	834.9035034179688	50.35747528076172	1013.887451171875	679.7407836914063	1137.37060546875	1174.558837890625	718.1158447265625	209.0722351074219	1036.008178710938	675.7828979492188	210.4439239501953	1071.334716796875	715.9344482421875	289.4677429199219	1030.7587890625	674.5565185546875	291.2739868164063	1065.274169921875	786.3848876953125	694.7769165039063	1035.011596679688	720.784423828125	686.1647338867188	1064.8583984375	765.7283935546875	803.6102294921875	1031.465209960938	707.3421020507813	795.7538452148438	1065.46435546875	826.1991577148438	482.1578369140625	1089.733520507813	710.549072265625	109.800422668457	1413.71435546875	732.2877807617188	122.5524673461914	1330.060302734375	848.7535400390625	1074.436157226563	1373.05029296875	773.5166625976563	986.749267578125	1417.015991210938	641.34912109375	43.51972198486328	1370.156860351563	666.8677368164063	65.17496490478516	1409.638427734375	651.5867309570313	90.28800964355469	1370.4697265625	766.6477661132813	507.6021423339844	1399.4482421875	786.5955810546875	1160.397338867188	1409.56494140625	772.01025390625	563.8017578125	1392.107177734375	777.1077880859375	548.2921142578125	1271.7529296875	862.983154296875	65.43989562988281	1329.090942382813	872.5532836914063	70.08560943603516	1371.6259765625	830.8912353515625	51.44421005249023	1442.251098632813	678.1491088867188	1135.0390625	1276.542602539063	712.4494018554688	208.476318359375	1414.013427734375	675.1739501953125	212.6950378417969	1378.98974609375	714.5729370117188	293.2860717773438	1420.159301757813	673.8175659179688	293.3872680664063	1385.331298828125	768.54931640625	689.501220703125	1408.48681640625	706.7556762695313	682.5138549804688	1368.363891601563	748.7875366210938	797.8499755859375	1412.485717773438	693.831787109375	791.462646484375	1370.445556640625	824.867431640625	479.8069152832031	1357.7412109375	
